# xmcd
#
# Track frame offsets:
#	187
#	12937
#	24412
#	38362
#	53437
#	64050
#	79837
#	90712
#	111075
#	121012
#	136462
#
# Disc length: 1958 seconds
#
# Revision: 0
# Processed by: cddbd v1.4PL0 Copyright (c) Steve Scherf et al.
# Submitted via: EasyCDDAExtractor 4.5.0.2
#
DISCID=7b07a40b
DTITLE=J. D. Crowe and The New South
DYEAR=1986
DGENRE=Bluegrass
TTITLE0=Old Home Place
TTITLE1=Some Old Day
TTITLE2=Rock Salt and Nails
TTITLE3=Sally Goodin
TTITLE4=Ten Degrees
TTITLE5=Nashville Blues
TTITLE6=You Are What I Am
TTITLE7=Summer Wages
TTITLE8=I'm Walkin'
TTITLE9=Home Sweet Home Revisited
TTITLE10=Cryin' Holy
EXTD=
EXTT0=
EXTT1=
EXTT2=
EXTT3=
EXTT4=
EXTT5=
EXTT6=
EXTT7=
EXTT8=
EXTT9=
EXTT10=
PLAYORDER=
